<svg xmlns="http://www.w3.org/2000/svg" width="192" height="280" fill="none"><g filter="url(#a)"><path fill="#FF7A00" d="M60 94h74v127H60z"/><ellipse cx="96" cy="76.5" fill="url(#b)" rx="92" ry="76.5"/><path fill="url(#c)" d="m40 171 25.98 54.75H14.02L40 171Z"/><path fill="url(#d)" d="m96.5 171 26.414 54.75H70.086L96.5 171Z"/><path fill="url(#e)" d="m70.5 191 26.414 54.75H44.086L70.5 191Z"/><path fill="url(#f)" d="m153 171 25.981 54.75h-51.962L153 171Z"/><path fill="url(#g)" d="m123 191 25.981 54.75H97.019L123 191Z"/><path fill="#fff" d="M53.065 253.545V271h-2.812l-8.225-11.889h-.145V271h-3.161v-17.455h2.83l8.215 11.898h.153v-11.898h3.145Zm9.105 17.711c-1.313 0-2.446-.273-3.4-.818a5.546 5.546 0 0 1-2.191-2.336c-.511-1.011-.767-2.201-.767-3.571 0-1.346.256-2.528.767-3.545.517-1.023 1.239-1.818 2.165-2.387.926-.573 2.014-.86 3.264-.86.807 0 1.568.13 2.284.392a5.15 5.15 0 0 1 1.909 1.193c.557.54.994 1.227 1.313 2.062.318.83.477 1.819.477 2.966v.946H57.26v-2.079h7.772c-.005-.591-.133-1.117-.383-1.577-.25-.466-.6-.832-1.048-1.099-.444-.267-.96-.401-1.552-.401-.63 0-1.184.153-1.661.46-.478.301-.85.699-1.117 1.193a3.437 3.437 0 0 0-.4 1.611v1.816c0 .761.139 1.414.417 1.96.279.54.668.954 1.168 1.244.5.284 1.085.426 1.755.426.45 0 .855-.062 1.22-.187.363-.131.678-.321.945-.571.267-.25.469-.56.605-.929l2.88.324a4.491 4.491 0 0 1-1.039 1.994c-.505.562-1.153 1-1.943 1.312-.79.307-1.693.461-2.71.461Zm10.672-13.347 2.642 4.832 2.685-4.832h3.264l-3.946 6.546L81.501 271h-3.247l-2.77-4.713L72.74 271h-3.273l3.989-6.545-3.886-6.546h3.272Zm17.514 0v2.386h-7.525v-2.386h7.525Zm-5.667-3.136h3.085v12.289c0 .415.063.733.188.955.13.216.3.364.511.443.21.08.443.12.699.12.193 0 .37-.015.528-.043.165-.028.29-.054.375-.077l.52 2.412c-.165.057-.4.119-.707.188a5.78 5.78 0 0 1-1.108.119c-.773.023-1.469-.094-2.088-.349a3.25 3.25 0 0 1-1.475-1.211c-.358-.545-.534-1.227-.528-2.045v-12.801ZM93.354 271v-17.455H99.9c1.341 0 2.466.25 3.375.75.915.5 1.605 1.188 2.071 2.063.471.869.707 1.858.707 2.966 0 1.119-.236 2.113-.707 2.983-.472.869-1.168 1.554-2.088 2.054-.921.494-2.054.741-3.4.741h-4.339v-2.599h3.912c.784 0 1.426-.137 1.926-.409.5-.273.87-.648 1.108-1.125.245-.478.367-1.026.367-1.645s-.122-1.165-.367-1.636c-.238-.472-.611-.839-1.116-1.1-.5-.267-1.145-.4-1.935-.4h-2.898V271h-3.162Zm18.395-7.67V271h-3.086v-17.455h3.017v6.589h.154a3.788 3.788 0 0 1 1.423-1.748c.648-.431 1.472-.647 2.472-.647.909 0 1.701.19 2.378.571.676.38 1.198.937 1.568 1.67.375.733.562 1.628.562 2.685V271h-3.085v-7.858c0-.881-.227-1.565-.682-2.054-.449-.494-1.079-.741-1.892-.741-.545 0-1.034.119-1.466.358a2.497 2.497 0 0 0-1.005 1.014c-.239.443-.358.98-.358 1.611Zm15.4 7.934c-.829 0-1.577-.148-2.241-.443a3.66 3.66 0 0 1-1.569-1.33c-.38-.585-.571-1.306-.571-2.164 0-.739.137-1.35.41-1.833a3.157 3.157 0 0 1 1.116-1.159 5.638 5.638 0 0 1 1.594-.656 12.98 12.98 0 0 1 1.849-.332c.767-.08 1.389-.151 1.867-.213.477-.069.824-.171 1.039-.307.222-.142.333-.361.333-.657v-.051c0-.642-.19-1.139-.571-1.491-.381-.352-.929-.529-1.645-.529-.756 0-1.355.165-1.798.495-.438.329-.733.718-.887 1.167l-2.88-.409c.227-.795.602-1.46 1.125-1.994a4.888 4.888 0 0 1 1.917-1.21c.756-.273 1.591-.409 2.506-.409a8.14 8.14 0 0 1 1.883.221 5.303 5.303 0 0 1 1.713.733c.518.335.932.793 1.245 1.372.318.58.477 1.304.477 2.174V271h-2.966v-1.798h-.102a3.78 3.78 0 0 1-.793 1.022c-.335.313-.758.566-1.27.759-.505.187-1.099.281-1.781.281Zm.801-2.267c.62 0 1.157-.122 1.611-.366.455-.25.804-.58 1.048-.989.25-.409.375-.855.375-1.338v-1.543c-.096.08-.261.154-.494.222a6.996 6.996 0 0 1-.767.179c-.284.051-.565.097-.844.136l-.724.103c-.46.062-.872.164-1.236.306a2.047 2.047 0 0 0-.861.597c-.21.25-.315.574-.315.972 0 .568.207.997.622 1.286.415.29.943.435 1.585.435Zm19.56-7.628-2.813.307a2.248 2.248 0 0 0-.417-.801 2.072 2.072 0 0 0-.784-.605c-.33-.154-.733-.23-1.21-.23-.643 0-1.182.139-1.62.417-.432.279-.645.64-.639 1.083-.006.38.134.69.418.929.289.238.767.434 1.431.588l2.233.477c1.239.267 2.159.69 2.762 1.27.608.58.915 1.338.92 2.276a3.555 3.555 0 0 1-.724 2.181c-.472.625-1.128 1.114-1.969 1.466-.841.353-1.807.529-2.898.529-1.602 0-2.892-.336-3.869-1.006-.977-.676-1.56-1.616-1.747-2.821l3.008-.29c.137.591.426 1.037.87 1.338.443.301 1.02.452 1.73.452.733 0 1.321-.151 1.764-.452.449-.301.673-.673.673-1.116 0-.375-.145-.685-.434-.929-.284-.245-.728-.432-1.33-.563l-2.233-.468c-1.256-.262-2.185-.702-2.787-1.321-.602-.625-.9-1.415-.895-2.37-.005-.807.213-1.505.657-2.096.448-.597 1.071-1.057 1.866-1.381.801-.33 1.724-.494 2.77-.494 1.534 0 2.741.326 3.622.98.886.653 1.435 1.537 1.645 2.65Zm8.621 9.887c-1.313 0-2.446-.273-3.401-.818a5.542 5.542 0 0 1-2.19-2.336c-.512-1.011-.767-2.201-.767-3.571 0-1.346.255-2.528.767-3.545.517-1.023 1.238-1.818 2.165-2.387.926-.573 2.014-.86 3.264-.86.807 0 1.568.13 2.284.392a5.153 5.153 0 0 1 1.909 1.193c.557.54.994 1.227 1.312 2.062.319.83.478 1.819.478 2.966v.946h-10.73v-2.079h7.772c-.005-.591-.133-1.117-.383-1.577-.25-.466-.6-.832-1.049-1.099-.443-.267-.96-.401-1.551-.401-.63 0-1.184.153-1.662.46a3.173 3.173 0 0 0-1.116 1.193 3.445 3.445 0 0 0-.401 1.611v1.816c0 .761.14 1.414.418 1.96.278.54.668.954 1.168 1.244.5.284 1.085.426 1.755.426.449 0 .855-.062 1.219-.187.364-.131.679-.321.946-.571.267-.25.469-.56.605-.929l2.881.324a4.497 4.497 0 0 1-1.04 1.994c-.506.562-1.153 1-1.943 1.312-.79.307-1.693.461-2.71.461Z"/></g><defs><linearGradient id="b" x1="96" x2="96" y1="0" y2="153" gradientUnits="userSpaceOnUse"><stop stop-color="#C4FFBF"/><stop offset="1" stop-color="#14FF00"/></linearGradient><linearGradient id="c" x1="40" x2="40" y1="171" y2="244" gradientUnits="userSpaceOnUse"><stop stop-color="#FF5F86"/><stop offset="1" stop-color="#FF003D"/></linearGradient><linearGradient id="d" x1="96.5" x2="96.5" y1="171" y2="244" gradientUnits="userSpaceOnUse"><stop stop-color="#FF5F86"/><stop offset="1" stop-color="#FF003D"/></linearGradient><linearGradient id="e" x1="70.5" x2="70.5" y1="191" y2="264" gradientUnits="userSpaceOnUse"><stop stop-color="#FF5F86"/><stop offset="1" stop-color="#FF003D"/></linearGradient><linearGradient id="f" x1="153" x2="153" y1="171" y2="244" gradientUnits="userSpaceOnUse"><stop stop-color="#FF5F86"/><stop offset="1" stop-color="#FF003D"/></linearGradient><linearGradient id="g" x1="123" x2="123" y1="191" y2="264" gradientUnits="userSpaceOnUse"><stop stop-color="#FF5F86"/><stop offset="1" stop-color="#FF003D"/></linearGradient><filter id="a" width="192" height="279.264" x="0" y="0" color-interpolation-filters="sRGB" filterUnits="userSpaceOnUse"><feFlood flood-opacity="0" result="BackgroundImageFix"/><feColorMatrix in="SourceAlpha" result="hardAlpha" values="0 0 0 0 0 0 0 0 0 0 0 0 0 0 0 0 0 0 127 0"/><feOffset dy="4"/><feGaussianBlur stdDeviation="2"/><feComposite in2="hardAlpha" operator="out"/><feColorMatrix values="0 0 0 0 0 0 0 0 0 0 0 0 0 0 0 0 0 0 0.25 0"/><feBlend in2="BackgroundImageFix" result="effect1_dropShadow_18_168"/><feBlend in="SourceGraphic" in2="effect1_dropShadow_18_168" result="shape"/></filter></defs></svg>